<svg xmlns="http://www.w3.org/2000/svg" width="73" height="72" viewBox="0 0 73 72">
    <g fill="none">
        <path fill="#FFF" d="M36.194 0C16.205 0 0 16.079 0 35.911c0 19.833 16.205 35.912 36.194 35.912 19.989 0 36.194-16.079 36.194-35.912C72.388 16.08 56.183 0 36.194 0zm33.84 35.911c0 18.543-15.15 33.576-33.84 33.576-18.69 0-33.84-15.033-33.84-33.576 0-18.542 15.151-33.576 33.84-33.576 18.689 0 33.84 15.034 33.84 33.576z" transform="translate(.425)"/>
        <g fill="#FFF">
            <path d="M43.734 16.452c.491.524 1.2 1.369 1.598 1.882l7.329-4.616c-.366-.475-.95-1.197-1.385-1.706l-4.642 3.045-.317.27.236-.342 2.05-4.058-1.45-1.438-4.092 2.033-.344.234.274-.314 3.07-4.603c-.54-.456-1.059-.874-1.72-1.38l-4.653 7.265c.59.45 1.367 1.11 1.862 1.56l4.38-2.255.28-.205-.206.279-2.27 4.35zM27.103 7.244l2.003-4.45.127-.395-.036.411.21 5.948c.703.066 1.429.163 2.144.281L31.225.23c-1-.11-1.996-.188-2.992-.23L26.26 4.858l-.07.361-.07-.36L24.15 0c-.997.042-1.993.12-2.993.23l-.325 8.81c.715-.12 1.44-.214 2.143-.282l.21-5.948-.036-.411.128.394 2.002 4.451h1.824zM10.906 14.265c1.158-1.21 1.813-2.608.656-3.942-.63-.724-1.688-.883-2.565-.526l-.087.034.028-.076c.13-.344.213-1.442-.73-2.2-.46-.37-1.036-.507-1.62-.448-1.087.11-1.923.847-4.2 3.366C1.7 11.233.7 12.433.1 13.209l6.254 5.887c2.073-2.276 2.918-3.123 4.552-4.831zm-8.16-1.44C4.004 11.296 5.343 9.909 5.95 9.36c.192-.173.4-.346.653-.414.411-.112.835.178.93.596.096.42-.17.819-.466 1.148-.666.746-3.109 3.281-3.109 3.281l-1.213-1.146zm2.449 2.306s2.379-2.496 3.156-3.294c.308-.317.506-.51.719-.613.274-.133.574-.16.843.017.263.176.385.477.319.777-.079.357-.373.697-.615.957l-3.154 3.349-1.268-1.193z" transform="translate(.425) translate(10.002 4.223)"/>
        </g>
        <path fill="#FFF" d="M57.658 35.911H36.194V14.615c11.862 0 21.464 9.527 21.464 21.296zM36.194 35.911v21.296c-11.862 0-21.464-9.527-21.464-21.296h21.464z" transform="translate(.425)"/>
        <path fill="#0066B1" d="M36.194 14.615v21.296H14.73c0-11.769 9.602-21.296 21.464-21.296zM57.658 35.911c0 11.77-9.602 21.296-21.464 21.296V35.911h21.464z" transform="translate(.425)"/>
    </g>
</svg>
